:FULLY-SPECIFIED
:FORCE-ALL-JOINTS-BE-3DOF
:DEGREES
204
root -2.8885 16.3118 -36.1212 3.85524 0.704506 -2.95781
lfemur -23.8592 6.55754 -8.21093
ltibia 48.2894 0 0
lfoot -23.5952 0.421464 0
ltoes -9.49701 0 0
rfemur -23.7481 -7.39827 14.6666
rtibia 50.2808 0 0
rfoot -27.38 2.0016 0
rtoes -8.01185 0 0
lowerback 7.33967 1.92409 -1.65857
upperback -3.8101 2.50542 1.33661
thorax -8.27906 1.35782 1.98118
lowerneck -3.40825 -3.89488 -6.60819
upperneck 6.86148 -5.25349 6.0145
head 3.2338 -2.58861 2.9693
lclavicle 7.77833e-15 2.17948e-14 0
lhumerus -26.6659 -1.61865 88.6103
lradius 24.258 0 0
lwrist -31.4511 0 0
lhand -28.2338 30.0924 0
lfingers 7.12502 0 0
lthumb -1.61174 60.0661 0
rclavicle 7.77833e-15 2.17948e-14 0
rhumerus -32.314 1.84626 -79.7915
rradius 30.2929 0 0
rwrist 3.29387 0 0
rhand -19.8911 -26.9089 0
rfingers 7.12502 0 0
rthumb 6.44497 -56.7908 0
205
root -2.88875 16.3097 -36.1204 3.85272 0.702929 -2.95694
lfemur -23.8555 6.55711 -8.21234
ltibia 48.2885 0 0
lfoot -23.5949 0.422856 0
ltoes -9.49799 0 0
rfemur -23.7454 -7.3964 14.6646
rtibia 50.2802 0 0
rfoot -27.3797 2.00141 0
rtoes -8.01128 0 0
lowerback 7.3409 1.92431 -1.6587
upperback -3.8093 2.50565 1.33625
thorax -8.27891 1.35791 1.98081
lowerneck -3.4066 -3.89483 -6.60838
upperneck 6.85821 -5.25343 6.01525
head 3.23241 -2.58859 2.96961
lclavicle 7.62464e-15 2.15773e-14 0
lhumerus -26.6662 -1.62027 88.6109
lradius 24.2588 0 0
lwrist -31.4506 0 0
lhand -28.2349 30.0926 0
lfingers 7.12502 0 0
lthumb -1.61274 60.0663 0
rclavicle 7.62464e-15 2.15773e-14 0
rhumerus -32.3149 1.84722 -79.792
rradius 30.2939 0 0
rwrist 3.29326 0 0
rhand -19.892 -26.9082 0
rfingers 7.12502 0 0
rthumb 6.44409 -56.7901 0
206
root -2.889 16.3076 -36.1197 3.84984 0.701098 -2.95595
lfemur -23.8512 6.55657 -8.21399
ltibia 48.2873 0 0
lfoot -23.5945 0.424467 0
ltoes -9.4991 0 0
rfemur -23.7423 -7.39422 14.6622
rtibia 50.2794 0 0
rfoot -27.3793 2.00121 0
rtoes -8.01057 0 0
lowerback 7.34229 1.92457 -1.65884
upperback -3.8084 2.50592 1.33583
thorax -8.27875 1.35803 1.98038
lowerneck -3.40471 -3.89475 -6.6086
upperneck 6.85446 -5.25336 6.01609
head 3.23081 -2.58855 2.96995
lclavicle 7.449e-15 2.13292e-14 0
lhumerus -26.6665 -1.62214 88.6116
lradius 24.2598 0 0
lwrist -31.4501 0 0
lhand -28.2361 30.0929 0
lfingers 7.12502 0 0
lthumb -1.61389 60.0665 0
rclavicle 7.449e-15 2.13292e-14 0
rhumerus -32.3159 1.84833 -79.7925
rradius 30.2951 0 0
rwrist 3.29254 0 0
rhand -19.8931 -26.9073 0
rfingers 7.12502 0 0
rthumb 6.44306 -56.7893 0
207
root -2.88925 16.3055 -36.119 3.84657 0.699073 -2.95483
lfemur -23.8465 6.55603 -8.21581
ltibia 48.2861 0 0
lfoot -23.5942 0.426257 0
ltoes -9.50039 0 0
rfemur -23.7389 -7.39184 14.6596
rtibia 50.2788 0 0
rfoot -27.379 2.00096 0
rtoes -8.00985 0 0
lowerback 7.34388 1.92485 -1.659
upperback -3.80737 2.50622 1.33537
thorax -8.27856 1.35815 1.9799
lowerneck -3.40259 -3.89468 -6.60885
upperneck 6.85025 -5.25328 6.01705
head 3.22901 -2.58852 2.97035
lclavicle 7.25003e-15 2.10474e-14 0
lhumerus -26.6668 -1.62424 88.6124
lradius 24.2609 0 0
lwrist -31.4495 0 0
lhand -28.2374 30.0932 0
lfingers 7.12502 0 0
lthumb -1.61518 60.0668 0
rclavicle 7.25003e-15 2.10474e-14 0
rhumerus -32.3171 1.84957 -79.7931
rradius 30.2964 0 0
rwrist 3.29176 0 0
rhand -19.8943 -26.9064 0
rfingers 7.12502 0 0
rthumb 6.44192 -56.7884 0
208
root -2.8895 16.3034 -36.1183 3.84288 0.696913 -2.9536
lfemur -23.8414 6.55555 -8.21776
ltibia 48.2853 0 0
lfoot -23.5942 0.428188 0
ltoes -9.50195 0 0
rfemur -23.7352 -7.38938 14.6567
rtibia 50.2785 0 0
rfoot -27.379 2.00066 0
rtoes -8.00922 0 0
lowerback 7.34565 1.92515 -1.65918
upperback -3.80619 2.50653 1.33485
thorax -8.27833 1.35828 1.97936
lowerneck -3.40029 -3.89463 -6.60915
upperneck 6.84562 -5.25324 6.01816
head 3.22705 -2.5885 2.9708
lclavicle 7.02638e-15 2.07291e-14 0
lhumerus -26.6671 -1.62653 88.6134
lradius 24.2621 0 0
lwrist -31.4488 0 0
lhand -28.2389 30.0934 0
lfingers 7.12502 0 0
lthumb -1.6166 60.0671 0
rclavicle 7.02638e-15 2.07291e-14 0
rhumerus -32.3183 1.85092 -79.7938
rradius 30.2978 0 0
rwrist 3.29093 0 0
rhand -19.8955 -26.9054 0
rfingers 7.12502 0 0
rthumb 6.44071 -56.7875 0
209
root -2.88975 16.3013 -36.1176 3.83874 0.694679 -2.95227
lfemur -23.8361 6.55523 -8.21979
ltibia 48.2852 0 0
lfoot -23.5945 0.430219 0
ltoes -9.50384 0 0
rfemur -23.7313 -7.38697 14.6535
rtibia 50.279 0 0
rfoot -27.3793 2.00028 0
rtoes -8.00879 0 0
lowerback 7.34764 1.92547 -1.65936
upperback -3.80484 2.50686 1.33429
thorax -8.27803 1.35841 1.97879
lowerneck -3.39783 -3.89461 -6.6095
upperneck 6.8406 -5.25323 6.01943
head 3.22493 -2.5885 2.97132
lclavicle 6.77665e-15 2.03713e-14 0
lhumerus -26.6673 -1.62901 88.6145
lradius 24.2634 0 0
lwrist -31.448 0 0
lhand -28.2405 30.0936 0
lfingers 7.12502 0 0
lthumb -1.61813 60.0672 0
rclavicle 6.77665e-15 2.03713e-14 0
rhumerus -32.3196 1.85236 -79.7944
rradius 30.2992 0 0
rwrist 3.2901 0 0
rhand -19.8968 -26.9044 0
rfingers 7.12502 0 0
rthumb 6.43945 -56.7865 0
210
root -2.89 16.2992 -36.1169 3.83411 0.692429 -2.95086
lfemur -23.8307 6.55515 -8.22185
ltibia 48.2861 0 0
lfoot -23.5955 0.432311 0
ltoes -9.50614 0 0
rfemur -23.7272 -7.38472 14.6501
rtibia 50.2805 0 0
rfoot -27.3803 1.99981 0
rtoes -8.00866 0 0
lowerback 7.34984 1.9258 -1.65954
upperback -3.80331 2.50719 1.3337
thorax -8.27765 1.35854 1.97816
lowerneck -3.39526 -3.89464 -6.60993
upperneck 6.83523 -5.2533 6.02089
head 3.2227 -2.58854 2.97192
lclavicle 6.4995e-15 1.99712e-14 0
lhumerus -26.6675 -1.63164 88.6159
lradius 24.2648 0 0
lwrist -31.4471 0 0
lhand -28.2421 30.0937 0
lfingers 7.12502 0 0
lthumb -1.61975 60.0673 0
rclavicle 6.4995e-15 1.99712e-14 0
rhumerus -32.3209 1.85386 -79.7949
rradius 30.3008 0 0
rwrist 3.28928 0 0
rhand -19.8981 -26.9035 0
rfingers 7.12502 0 0
rthumb 6.43817 -56.7855 0
211
root -2.89025 16.2971 -36.1161 3.82895 0.690225 -2.94936
lfemur -23.8253 6.55539 -8.2239
ltibia 48.2883 0 0
lfoot -23.5972 0.434424 0
ltoes -9.50893 0 0
rfemur -23.7232 -7.38276 14.6466
rtibia 50.2832 0 0
rfoot -27.382 1.99922 0
rtoes -8.00895 0 0
lowerback 7.35226 1.92612 -1.65973
upperback -3.80157 2.50751 1.33306
thorax -8.27717 1.35867 1.9775
lowerneck -3.39261 -3.89473 -6.61044
upperneck 6.82955 -5.25345 6.02257
head 3.22035 -2.58861 2.9726
lclavicle 6.19355e-15 1.95257e-14 0
lhumerus -26.6675 -1.63441 88.6175
lradius 24.2663 0 0
lwrist -31.4461 0 0
lhand -28.2439 30.0936 0
lfingers 7.12502 0 0
lthumb -1.62145 60.0672 0
rclavicle 6.19355e-15 1.95257e-14 0
rhumerus -32.3222 1.85541 -79.7954
rradius 30.3023 0 0
rwrist 3.28852 0 0
rhand -19.8994 -26.9025 0
rfingers 7.12502 0 0
rthumb 6.43691 -56.7846 0
